<svg xmlns="http://www.w3.org/2000/svg" xmlns:xlink="http://www.w3.org/1999/xlink" width="22" height="22" viewBox="0 0 22 22"><defs><path id="a" d="M1784.72 46.74l.09-.09c3.01-2.61 4.3-5.99 4.3-11.29a4.9 4.9 0 0 1 9.78 0c0 5.29 1.29 8.67 4.3 11.3l.09.08zm7.32 1.44h3.92a2.1 2.1 0 0 1-3.92 0zm8.29-12.82A6.35 6.35 0 0 0 1794 29a6.35 6.35 0 0 0-6.33 6.36c0 6.06-1.83 8.48-3.81 10.2a2.55 2.55 0 0 0-.86 1.9c0 .4.32.72.72.72h6.83a3.53 3.53 0 0 0 6.9 0h6.83c.4 0 .72-.32.72-.72 0-.73-.32-1.43-.86-1.9-1.98-1.72-3.81-4.14-3.81-10.2z"/></defs><g transform="translate(-1783 -29)"><use fill="#bbc5cd" xlink:href="#a"/></g></svg>