<?xml version="1.0" encoding="UTF-8"?>
<svg width="49px" height="48px" viewBox="0 0 49 48" version="1.1" xmlns="http://www.w3.org/2000/svg" xmlns:xlink="http://www.w3.org/1999/xlink">
    <!-- Generator: Sketch 49.1 (51147) - http://www.bohemiancoding.com/sketch -->
    <title>icon</title>
    <desc>Created with Sketch.</desc>
    <defs>
        <path d="M20.0467,22.4682 L20.3047,21.6822 C20.3787,21.4612 20.6117,21.2892 20.8207,21.2892 L28.2887,21.2892 C28.5097,21.2892 28.6327,21.4612 28.5587,21.6822 L28.3007,22.4682 C28.2277,22.6892 27.9937,22.8612 27.7857,22.8612 L20.3167,22.8612 C20.0957,22.8612 19.9727,22.6892 20.0467,22.4682 M21.0667,19.3232 L21.3237,18.5372 C21.3977,18.3162 21.6307,18.1442 21.8397,18.1442 L29.3077,18.1442 C29.5297,18.1442 29.6517,18.3162 29.5787,18.5372 L29.3207,19.3232 C29.2467,19.5452 29.0127,19.7172 28.8047,19.7172 L21.3367,19.7172 C21.1147,19.7172 20.9927,19.5452 21.0667,19.3232 M34.1347,19.2992 C33.9517,19.0532 33.6937,18.8812 33.4107,18.7712 C33.4227,18.9922 33.4227,19.2382 33.3497,19.4712 L29.6647,31.5942 C29.5297,32.0372 29.0017,32.2952 28.5467,32.2952 L17.2097,32.2952 C16.5337,32.2952 15.6857,32.1472 15.4407,31.4352 C15.3417,31.1652 15.3547,31.0542 15.4527,30.9072 C15.5637,30.7602 15.7597,30.7222 15.9197,30.7222 L26.5937,30.7222 C28.1537,30.7222 28.4727,30.3042 29.0497,28.4132 L32.4167,17.2842 C32.5887,16.7072 32.5137,16.1302 32.1947,15.6882 C31.8877,15.2582 31.3717,15.0002 30.7947,15.0002 L21.4467,15.0002 C21.2377,15.0002 21.0287,15.0612 20.8207,15.1102 L20.8327,15.0732 C19.2727,14.6312 19.1747,16.3142 18.6587,17.0752 C18.4627,17.3582 18.1677,17.6042 18.1177,17.8372 C18.0817,18.0582 18.2037,18.2672 18.1797,18.4762 C18.1057,19.1272 17.6147,20.2942 17.3197,20.6992 C17.1357,20.9452 16.8647,21.0682 16.7787,21.3502 C16.7057,21.5472 16.8287,21.8292 16.8037,22.0872 C16.7427,22.6652 16.3127,23.7582 15.9807,24.3232 C15.8587,24.5442 15.6247,24.7162 15.5637,24.9492 C15.5017,25.1582 15.6247,25.4282 15.5637,25.6622 C15.4277,26.3012 15.0107,27.2962 14.6417,27.9102 C14.4457,28.2412 14.1877,28.4502 14.1387,28.7452 C14.1137,28.8922 14.2247,29.0512 14.2127,29.2492 C14.1997,29.5432 14.1507,29.7892 14.1267,30.0352 C13.9537,30.5022 13.9537,31.0422 14.1507,31.5942 C14.6057,32.8722 15.9437,33.8672 17.1967,33.8672 L28.5347,33.8672 C29.5907,33.8672 30.6727,33.0562 30.9787,32.0122 L34.3567,20.8842 C34.5287,20.3192 34.4427,19.7412 34.1347,19.2992" id="path-1"></path>
        <filter x="-110.1%" y="-119.3%" width="320.1%" height="338.5%" filterUnits="objectBoundingBox" id="filter-2">
            <feOffset dx="0" dy="0" in="SourceAlpha" result="shadowOffsetOuter1"></feOffset>
            <feGaussianBlur stdDeviation="7.5" in="shadowOffsetOuter1" result="shadowBlurOuter1"></feGaussianBlur>
            <feColorMatrix values="0 0 0 0 0.48627451   0 0 0 0 0.835294118   0 0 0 0 0.262745098  0 0 0 0.35 0" type="matrix" in="shadowBlurOuter1"></feColorMatrix>
        </filter>
    </defs>
    <g id="-" stroke="none" stroke-width="1" fill="none" fill-rule="evenodd">
        <g id="icon_directories_active">
            <g id="icon">
                <use fill="black" fill-opacity="1" filter="url(#filter-2)" xlink:href="#path-1"></use>
                <use fill="#7CD543" fill-rule="evenodd" xlink:href="#path-1"></use>
            </g>
        </g>
    </g>
</svg>