<svg xmlns="http://www.w3.org/2000/svg" xmlns:xlink="http://www.w3.org/1999/xlink" width="25" height="20" viewBox="0 0 25 20"><defs><path id="kspba" d="M1868.9 599.63h-22.8v-2.5h22.8v2.5zm-10.36 13.2v-1.65h-1.86v1.66zm2.78-7.06c0-1.84-1.66-3.32-3.72-3.32-2.05 0-3.71 1.48-3.71 3.32h1.86c0-.91.83-1.66 1.85-1.66 1.03 0 1.86.75 1.86 1.66 0 1.66-2.78 1.46-2.78 4.16h1.85c0-1.87 2.8-2.08 2.8-4.16zm6.23 9.1h-20.1v-14.14h20.1v14.14zm1.34-18.85h-22.78c-.61 0-1.11.5-1.11 1.11v2.5c0 .6.5 1.1 1.1 1.1h.25v14.14c0 .61.5 1.11 1.1 1.11h20.1c.6 0 1.1-.5 1.1-1.1v-14.15h.24c.61 0 1.11-.5 1.11-1.1v-2.5c0-.6-.5-1.1-1.1-1.1z"/></defs><g><g transform="translate(-1845 -596)"><use fill="#f69a9a" xlink:href="#kspba"/></g></g></svg>