<svg xmlns="http://www.w3.org/2000/svg" xmlns:xlink="http://www.w3.org/1999/xlink" width="25" height="20" viewBox="0 0 25 20"><defs><path id="j6kya" d="M1856.9 797.08v5.86h1.79v-5.86zm0 7.06v2.35h1.79v-2.35zm12.08-10.45h-22.79v-2.49h22.79v2.49zm-1.5 15.18h-20.1v-14.14h20.1v14.14zm1.41-18.85h-22.78c-.61 0-1.11.5-1.11 1.11v2.5c0 .6.5 1.1 1.1 1.1h.25v14.14c0 .61.5 1.11 1.1 1.11h20.1c.6 0 1.1-.5 1.1-1.1v-14.15h.24c.61 0 1.11-.5 1.11-1.1v-2.5c0-.6-.5-1.1-1.1-1.1z"/></defs><g><g transform="translate(-1845 -790)"><use fill="#7cd543" xlink:href="#j6kya"/></g></g></svg>