<?xml version="1.0" encoding="UTF-8"?>
<svg width="69px" height="67px" viewBox="0 0 69 67" version="1.1" xmlns="http://www.w3.org/2000/svg" xmlns:xlink="http://www.w3.org/1999/xlink">
    <!-- Generator: Sketch 49.1 (51147) - http://www.bohemiancoding.com/sketch -->
    <title>icon</title>
    <desc>Created with Sketch.</desc>
    <defs>
        <path d="M34.439,18.717 C34.439,18.053 34.021,17.464 33.407,17.242 L24.759,14.098 C24.587,14.036 24.404,14 24.219,14 C24.035,14 23.851,14.036 23.678,14.098 L15.032,17.242 C14.418,17.464 14,18.053 14,18.717 L14,28.151 C14,28.728 14.319,29.256 14.823,29.526 L23.47,34.242 C23.704,34.378 23.961,34.44 24.219,34.44 C24.477,34.44 24.735,34.378 24.968,34.242 L33.616,29.526 C34.12,29.256 34.439,28.728 34.439,28.151 L34.439,18.717 Z M24.219,21.812 L15.645,18.692 L24.219,15.572 L32.793,18.692 L24.219,21.812 Z M25.005,32.437 L25.005,23.2 L32.867,20.338 L32.867,28.151 L25.005,32.437 Z" id="path-1"></path>
        <filter x="-183.5%" y="-183.5%" width="466.9%" height="466.9%" filterUnits="objectBoundingBox" id="filter-2">
            <feOffset dx="0" dy="0" in="SourceAlpha" result="shadowOffsetOuter1"></feOffset>
            <feGaussianBlur stdDeviation="12.5" in="shadowOffsetOuter1" result="shadowBlurOuter1"></feGaussianBlur>
            <feColorMatrix values="0 0 0 0 0.48627451   0 0 0 0 0.835294118   0 0 0 0 0.262745098  0 0 0 0.35 0" type="matrix" in="shadowBlurOuter1"></feColorMatrix>
        </filter>
    </defs>
    <g id="-" stroke="none" stroke-width="1" fill="none" fill-rule="evenodd">
        <g id="icon_items_active" transform="translate(10.000000, 9.000000)">
            <g id="icon">
                <use fill="black" fill-opacity="1" filter="url(#filter-2)" xlink:href="#path-1"></use>
                <use fill="#7CD543" fill-rule="evenodd" xlink:href="#path-1"></use>
            </g>
        </g>
    </g>
</svg>