<svg xmlns="http://www.w3.org/2000/svg" xmlns:xlink="http://www.w3.org/1999/xlink" width="16" height="16" viewBox="0 0 16 16"><defs><path id="dpbma" d="M1884 34.88c0-.34-.13-.68-.38-.92l-3.96-3.96 3.96-3.96a1.3 1.3 0 0 0 0-1.83l-1.83-1.83a1.3 1.3 0 0 0-1.83 0l-3.96 3.96-3.96-3.96a1.3 1.3 0 0 0-1.83 0l-1.83 1.83a1.3 1.3 0 0 0 0 1.83l3.96 3.96-3.96 3.96a1.3 1.3 0 0 0 0 1.83l1.83 1.83a1.3 1.3 0 0 0 1.83 0l3.96-3.96 3.96 3.96a1.3 1.3 0 0 0 1.83 0l1.83-1.83c.25-.24.38-.58.38-.91z"/></defs><g><g transform="translate(-1868 -22)"><use fill="#fff" xlink:href="#dpbma"/></g></g></svg>