<svg xmlns="http://www.w3.org/2000/svg" xmlns:xlink="http://www.w3.org/1999/xlink" width="10" height="10" viewBox="0 0 10 10"><defs><path id="w1vba" d="M1102 602.05a.82.82 0 0 0-.24-.58l-2.47-2.47 2.47-2.47a.82.82 0 0 0 0-1.15l-1.14-1.14a.82.82 0 0 0-1.15 0l-2.47 2.47-2.47-2.47a.82.82 0 0 0-1.15 0l-1.14 1.14a.82.82 0 0 0 0 1.15l2.47 2.47-2.47 2.47a.82.82 0 0 0 0 1.15l1.14 1.14a.82.82 0 0 0 1.15 0l2.47-2.47 2.47 2.47a.82.82 0 0 0 1.15 0l1.14-1.14a.82.82 0 0 0 .24-.57z"/></defs><g><g transform="translate(-1092 -594)"><use fill="#7cd543" xlink:href="#w1vba"/></g></g></svg>