<svg xmlns="http://www.w3.org/2000/svg" xmlns:xlink="http://www.w3.org/1999/xlink" width="10" height="10" viewBox="0 0 10 10"><defs><path id="a" d="M1134 874.05a.82.82 0 0 0-.24-.58l-2.47-2.47 2.47-2.47a.82.82 0 0 0 .24-.58.78.78 0 0 0-.24-.57l-1.14-1.14a.78.78 0 0 0-.57-.24.82.82 0 0 0-.58.24l-2.47 2.47-2.47-2.47a.82.82 0 0 0-.58-.24.78.78 0 0 0-.57.24l-1.14 1.14a.78.78 0 0 0-.24.57c0 .21.08.42.24.58l2.47 2.47-2.47 2.47a.82.82 0 0 0-.24.58c0 .21.08.42.24.57l1.14 1.14c.15.16.36.24.57.24.21 0 .42-.08.58-.24l2.47-2.47 2.47 2.47c.16.16.37.24.58.24.21 0 .42-.08.57-.24l1.14-1.14a.78.78 0 0 0 .24-.57z"/></defs><g transform="translate(-1124 -866)"><use fill="#8695a0" xlink:href="#a"/></g></svg>