<svg xmlns="http://www.w3.org/2000/svg" xmlns:xlink="http://www.w3.org/1999/xlink" width="13" height="14" viewBox="0 0 13 14"><defs><path id="a" d="M1331.29 114.43h-.58a.28.28 0 0 1-.28-.29v-6.28c0-.16.12-.29.28-.29h.58c.16 0 .28.13.28.29v6.28c0 .16-.12.29-.28.29zm2.28 0h-.57a.29.29 0 0 1-.29-.29v-6.28c0-.16.13-.29.29-.29h.57c.16 0 .29.13.29.29v6.28c0 .16-.13.29-.29.29zm2.29 0h-.57a.29.29 0 0 1-.29-.29v-6.28c0-.16.13-.29.29-.29h.57c.16 0 .28.13.28.29v6.28c0 .16-.12.29-.28.29zm-4.14-10.19c.03-.03.1-.09.16-.1h2.83a.5.5 0 0 1 .15.1l.43 1.05h-4zm7.57 1.05h-2.76l-.63-1.5a1.4 1.4 0 0 0-1.19-.79h-2.85a1.4 1.4 0 0 0-1.19.79l-.63 1.5h-2.75a.28.28 0 0 0-.29.28v.57c0 .16.13.29.29.29h.85v8.5c0 .98.65 1.78 1.43 1.78h7.43c.79 0 1.43-.83 1.43-1.82v-8.46h.86c.16 0 .28-.13.28-.29v-.57a.27.27 0 0 0-.28-.28z"/></defs><g transform="translate(-1327 -103)"><use fill="#bac4cc" xlink:href="#a"/></g></svg>