<svg xmlns="http://www.w3.org/2000/svg" xmlns:xlink="http://www.w3.org/1999/xlink" width="4" height="15" viewBox="0 0 4 15"><defs><path id="a" d="M343 31.98c0 .56-.45 1.02-1 1.02h-2c-.55 0-1-.46-1-1.02v-2.05c0-.56.45-1.02 1-1.02h2c.55 0 1 .46 1 1.02zm0-5.46c0 .57-.45 1.03-1 1.03h-2c-.55 0-1-.46-1-1.03v-2.04c0-.57.45-1.03 1-1.03h2c.55 0 1 .46 1 1.03zm0-5.45c0 .56-.45 1.02-1 1.02h-2c-.55 0-1-.46-1-1.02v-2.05c0-.56.45-1.02 1-1.02h2c.55 0 1 .46 1 1.02z"/></defs><g transform="translate(-339 -18)"><use fill="#bac4cc" xlink:href="#a"/></g></svg>