<svg xmlns="http://www.w3.org/2000/svg" xmlns:xlink="http://www.w3.org/1999/xlink" width="19" height="20" viewBox="0 0 19 20"><defs><path id="a" d="M33.56 31.56c0 .78-.64 1.43-1.43 1.43h-15.7c-.78 0-1.43-.65-1.43-1.43V17.28c0-.78.65-1.42 1.43-1.42h1.43v-1.08c0-.98.8-1.78 1.78-1.78h.71c.99 0 1.79.8 1.79 1.78v1.08h4.28v-1.08c0-.98.81-1.78 1.79-1.78h.71c.98 0 1.79.8 1.79 1.78v1.08h1.42c.79 0 1.43.64 1.43 1.42zm-4.28-16.78c0-.2-.16-.35-.36-.35h-.71c-.2 0-.36.15-.36.35V18c0 .2.16.35.36.35h.71c.2 0 .36-.15.36-.35zm-8.57 0c0-.2-.15-.35-.36-.35h-.71c-.2 0-.36.15-.36.35V18c0 .2.16.35.36.35h.71c.21 0 .36-.15.36-.35zm-4.28 16.78h15.7V20.14h-15.7zm7.39-2.1a.36.36 0 0 1-.51 0l-3.21-3.21a.35.35 0 0 1 0-.5l.51-.51a.35.35 0 0 1 .5 0l2.46 2.45 4.95-4.95c.15-.14.37-.14.5 0l.52.51c.13.13.13.36 0 .5z"/></defs><g transform="translate(-15 -13)"><use fill="#616e79" xlink:href="#a"/></g></svg>