<?xml version="1.0" encoding="UTF-8"?>
<svg width="50px" height="50px" viewBox="0 0 50 50" version="1.1" xmlns="http://www.w3.org/2000/svg" xmlns:xlink="http://www.w3.org/1999/xlink">
    <!-- Generator: Sketch 49.1 (51147) - http://www.bohemiancoding.com/sketch -->
    <title>icon</title>
    <desc>Created with Sketch.</desc>
    <defs>
        <path d="M27.445,14 L27.445,15.939 L32.061,15.939 L32.061,20.555 L34,20.555 L34,14 L27.445,14 Z M14,14 L14,20.555 L15.938,20.555 L15.938,15.939 L20.556,15.939 L20.556,14 L14,14 Z M32.061,27.445 L32.061,32.061 L27.445,32.061 L27.445,34 L34,34 L34,27.445 L32.061,27.445 Z M14,27.445 L14,34 L20.556,34 L20.556,32.061 L15.938,32.061 L15.938,27.445 L14,27.445 Z" id="path-1"></path>
        <filter x="-112.5%" y="-112.5%" width="325.0%" height="325.0%" filterUnits="objectBoundingBox" id="filter-2">
            <feOffset dx="0" dy="0" in="SourceAlpha" result="shadowOffsetOuter1"></feOffset>
            <feGaussianBlur stdDeviation="7.5" in="shadowOffsetOuter1" result="shadowBlurOuter1"></feGaussianBlur>
            <feColorMatrix values="0 0 0 0 0.48627451   0 0 0 0 0.835294118   0 0 0 0 0.262745098  0 0 0 0.35 0" type="matrix" in="shadowBlurOuter1"></feColorMatrix>
        </filter>
    </defs>
    <g id="-" stroke="none" stroke-width="1" fill="none" fill-rule="evenodd">
        <g id="icon_scanner_active" transform="translate(1.000000, 1.000000)">
            <g id="icon">
                <use fill="black" fill-opacity="1" filter="url(#filter-2)" xlink:href="#path-1"></use>
                <use fill="#7CD543" fill-rule="evenodd" xlink:href="#path-1"></use>
            </g>
        </g>
    </g>
</svg>