<svg xmlns="http://www.w3.org/2000/svg" xmlns:xlink="http://www.w3.org/1999/xlink" width="17" height="17" viewBox="0 0 17 17"><defs><path id="a" d="M1745 270.75c0 .17-.13.37-.31.4l-2.05.31c-.12.35-.25.69-.43 1.01.38.54.78 1.03 1.19 1.52.06.08.11.18.11.28 0 .1-.04.18-.1.26-.27.35-1.76 1.98-2.14 1.98-.1 0-.2-.05-.29-.1l-1.52-1.2c-.33.17-.67.31-1.01.42-.08.68-.15 1.4-.32 2.06a.4.4 0 0 1-.4.31h-2.46a.4.4 0 0 1-.4-.33l-.31-2.04a6.08 6.08 0 0 1-.99-.41l-1.56 1.19a.48.48 0 0 1-.28.1.4.4 0 0 1-.28-.13c-.58-.53-1.36-1.21-1.82-1.85a.42.42 0 0 1-.08-.26c0-.1.03-.18.09-.25.37-.51.78-1 1.16-1.52a5.53 5.53 0 0 1-.45-1.1l-2.03-.3a.4.4 0 0 1-.32-.39v-2.46c0-.17.13-.37.3-.4l2.06-.31c.11-.35.25-.68.43-1.02-.38-.53-.78-1.03-1.19-1.52a.46.46 0 0 1-.11-.27c0-.1.05-.18.1-.25.27-.37 1.76-1.99 2.14-1.99.1 0 .2.05.29.12l1.53 1.18c.32-.17.66-.31 1-.42.08-.68.15-1.4.32-2.06a.4.4 0 0 1 .4-.31h2.46c.2 0 .37.14.4.33l.31 2.04c.34.11.67.24.99.41l1.58-1.19c.06-.06.16-.1.26-.1s.2.05.28.12c.58.54 1.36 1.22 1.82 1.88.06.06.08.15.08.24 0 .1-.03.18-.09.25-.37.51-.78 1-1.16 1.52.19.36.34.72.45 1.09l2.03.31a.4.4 0 0 1 .32.39zm-5.67-1.25a2.83 2.83 0 1 0-5.67 0 2.83 2.83 0 0 0 5.67 0z"/></defs><g transform="translate(-1728 -261)"><use fill="#7cd543" xlink:href="#a"/></g></svg>