<?xml version="1.0" encoding="UTF-8"?>
<svg width="51px" height="45px" viewBox="0 0 51 45" version="1.1" xmlns="http://www.w3.org/2000/svg" xmlns:xlink="http://www.w3.org/1999/xlink">
    <!-- Generator: Sketch 49.1 (51147) - http://www.bohemiancoding.com/sketch -->
    <title>icon</title>
    <desc>Created with Sketch.</desc>
    <defs>
        <path d="M13,15.0008 L13,32.1328 L35.844,32.1328 L35.844,30.7058 L14.427,30.7058 L14.427,15.0008 L13,15.0008 Z M30.132,29.2778 L32.988,29.2778 L32.988,16.4288 L30.132,16.4288 L30.132,29.2778 Z M21.566,29.2778 L24.422,29.2778 L24.422,17.8558 L21.566,17.8558 L21.566,29.2778 Z M25.849,29.2778 L28.705,29.2778 L28.705,20.7118 L25.849,20.7118 L25.849,29.2778 Z M17.283,29.2778 L20.139,29.2778 L20.139,23.5678 L17.283,23.5678 L17.283,29.2778 Z" id="path-1"></path>
        <filter x="-98.5%" y="-131.3%" width="297.0%" height="362.7%" filterUnits="objectBoundingBox" id="filter-2">
            <feOffset dx="0" dy="0" in="SourceAlpha" result="shadowOffsetOuter1"></feOffset>
            <feGaussianBlur stdDeviation="7.5" in="shadowOffsetOuter1" result="shadowBlurOuter1"></feGaussianBlur>
            <feColorMatrix values="0 0 0 0 0.48627451   0 0 0 0 0.835294118   0 0 0 0 0.262745098  0 0 0 0.35 0" type="matrix" in="shadowBlurOuter1"></feColorMatrix>
        </filter>
    </defs>
    <g id="-" stroke="none" stroke-width="1" fill="none" fill-rule="evenodd">
        <g id="icon_reports_active" transform="translate(2.000000, -2.000000)">
            <g id="icon">
                <use fill="black" fill-opacity="1" filter="url(#filter-2)" xlink:href="#path-1"></use>
                <use fill="#7CD543" fill-rule="evenodd" xlink:href="#path-1"></use>
            </g>
        </g>
    </g>
</svg>