<svg xmlns="http://www.w3.org/2000/svg" xmlns:xlink="http://www.w3.org/1999/xlink" width="22" height="19" viewBox="0 0 22 19"><defs><path id="a" d="M32.29 19.81l-.76.74-.76-.75-.73-.72.76-.75.73.73 1.75-1.72.75.75zm-4.21-.86a3.93 3.93 0 0 0 3.96 3.91A3.93 3.93 0 0 0 36 18.95a3.93 3.93 0 0 0-3.96-3.91 3.93 3.93 0 0 0-3.96 3.91zm3.94 5.49v4.23l-7.04 2.09V16.28l1.93.57c.26-.63.65-1.2 1.13-1.69l-3.75-1.12-.06-.01-.05-.01a.73.73 0 0 0-.36 0l-.05.01-.06.01-4.02 1.2v4.97l-2.22.42v-4.74l-1.95.58-.82.24c-.41.12-.7.5-.7.93v11.74c0 .43.29.81.7.93l9.01 2.68c.09.02.19.04.28.04.1 0 .2-.02.29-.04l9.01-2.68c.42-.12.7-.5.7-.93v-5.3c-.61.23-1.26.36-1.95.36z"/></defs><g transform="translate(-14 -14)"><use fill="#616e79" xlink:href="#a"/></g></svg>