<svg xmlns="http://www.w3.org/2000/svg" xmlns:xlink="http://www.w3.org/1999/xlink" width="22" height="20" viewBox="0 0 22 20"><defs><path id="a" d="M34.42 18.89c0 .16-1.44.32-1.67.34-.08.21-.2.4-.33.58.1.22.57 1.34.57 1.54 0 .03-.01.06-.05.08-.13.08-1.32.79-1.38.79-.14 0-.98-1.11-1.09-1.28l-.34.02-.33-.02a7.09 7.09 0 0 1-1.09 1.28c-.06 0-1.25-.71-1.39-.79-.03-.02-.04-.06-.04-.08 0-.19.47-1.32.57-1.54a2.6 2.6 0 0 1-.34-.58c-.22-.02-1.66-.18-1.66-.34v-1.57c0-.16 1.44-.32 1.66-.34.09-.2.2-.4.34-.58-.1-.22-.57-1.35-.57-1.54 0-.02.01-.06.04-.08.14-.07 1.33-.78 1.39-.78a7 7 0 0 1 1.09 1.27 3.65 3.65 0 0 1 .67 0c.31-.43.64-.87 1.02-1.25l.07-.02c.06 0 1.25.7 1.38.78a.1.1 0 0 1 .05.08c0 .2-.47 1.32-.57 1.54.13.18.25.38.33.58.23.02 1.67.18 1.67.34zm0 11.42c0 .17-1.44.32-1.67.34-.08.22-.2.41-.33.58.1.23.57 1.34.57 1.54 0 .04-.01.06-.05.08-.13.08-1.32.79-1.38.79-.14 0-.98-1.11-1.09-1.28l-.34.02-.33-.02a7.09 7.09 0 0 1-1.09 1.28c-.06 0-1.25-.71-1.39-.79a.1.1 0 0 1-.04-.08c0-.19.47-1.31.57-1.54a2.21 2.21 0 0 1-.34-.58c-.22-.02-1.66-.17-1.66-.34v-1.57c0-.16 1.44-.32 1.66-.34.09-.2.2-.4.34-.58-.1-.22-.57-1.35-.57-1.54 0-.02.01-.05.04-.08.14-.06 1.33-.78 1.39-.78.14 0 .98 1.11 1.09 1.27a3.65 3.65 0 0 1 .67 0c.31-.43.64-.87 1.02-1.24l.07-.03c.06 0 1.25.7 1.38.78.04.03.05.06.05.08 0 .2-.47 1.32-.57 1.54.13.18.25.38.33.58.23.02 1.67.18 1.67.34zm-7.14-5.45c0 .15-.11.32-.26.34l-1.73.27c-.09.29-.21.57-.35.85.31.44.64.85 1 1.28.04.06.08.13.08.22a.3.3 0 0 1-.08.21c-.22.3-1.47 1.66-1.8 1.66a.45.45 0 0 1-.23-.07l-1.28-1.01c-.28.15-.56.26-.86.35-.06.57-.11 1.18-.26 1.73a.35.35 0 0 1-.33.26H19.1c-.15 0-.31-.12-.33-.27l-.26-1.71a5.14 5.14 0 0 1-.84-.35l-1.31 1a.37.37 0 0 1-.23.07.4.4 0 0 1-.23-.08c-.29-.27-1.61-1.47-1.61-1.79 0-.08.04-.14.08-.21l.98-1.27a6.2 6.2 0 0 1-.39-.92l-1.69-.27a.31.31 0 0 1-.27-.32v-2.06c0-.15.11-.31.26-.34l1.73-.26c.09-.29.21-.57.35-.85-.31-.45-.64-.86-1-1.29a.35.35 0 0 1-.08-.22c0-.08.02-.15.08-.22.22-.3 1.47-1.65 1.79-1.65a.4.4 0 0 1 .24.08l1.28 1c.28-.15.56-.26.86-.36.06-.55.11-1.17.26-1.71a.35.35 0 0 1 .33-.27h2.08c.15 0 .31.12.33.28l.26 1.7c.29.09.57.21.83.35l1.32-.99a.33.33 0 0 1 .22-.08c.09 0 .17.03.24.09.29.26 1.6 1.47 1.6 1.78 0 .08-.03.15-.08.21-.32.44-.65.84-.96 1.28.14.3.27.6.37.91l1.7.26c.16.03.27.18.27.33zm4.28-6.75c0-.79-.65-1.43-1.43-1.43a1.43 1.43 0 1 0 1.43 1.43zm0 11.42c0-.79-.65-1.43-1.43-1.43a1.43 1.43 0 1 0 1.43 1.43zm-8.57-5.71a2.86 2.86 0 1 0-5.71 0 2.86 2.86 0 0 0 5.71 0z"/></defs><g transform="translate(-13 -14)"><use fill="#616e79" xlink:href="#a"/></g></svg>