<svg xmlns="http://www.w3.org/2000/svg" xmlns:xlink="http://www.w3.org/1999/xlink" width="21" height="21" viewBox="0 0 21 21"><defs><path id="a" d="M34.44 28.15c0 .58-.32 1.11-.82 1.38l-8.65 4.71c-.23.14-.49.2-.75.2s-.52-.06-.75-.2l-8.65-4.71c-.5-.27-.82-.8-.82-1.38v-9.43c0-.67.42-1.26 1.03-1.48l8.65-3.14c.17-.06.36-.1.54-.1.18 0 .37.04.54.1l8.65 3.14c.61.22 1.03.81 1.03 1.48zm-1.65-9.46l-8.57-3.12-8.57 3.12 8.57 3.12zm.08 9.46v-7.81l-7.86 2.86v9.24z"/></defs><g transform="translate(-14 -14)"><use fill="#616e79" xlink:href="#a"/></g></svg>