<svg xmlns="http://www.w3.org/2000/svg" xmlns:xlink="http://www.w3.org/1999/xlink" width="22" height="20" viewBox="0 0 22 20"><defs><path id="a" d="M32.99 16.86a2.86 2.86 0 1 1-5.71-.01 2.86 2.86 0 0 1 5.71.01zm1.43 6.79c0 1.24-1.05 1.77-2.17 1.77h-1.49a4 4 0 0 0-2.96-1.43c.58-.83.91-1.84.91-2.85 0-.25-.03-.49-.06-.74.48.17.97.26 1.48.26 1.51 0 2.67-.95 2.9-.95 1.42 0 1.39 3.03 1.39 3.94zm-6.43-2.51a4.28 4.28 0 1 1-8.57-.01 4.28 4.28 0 0 1 8.57.01zm-7.85-4.28a2.86 2.86 0 1 1-5.71-.01 2.86 2.86 0 0 1 5.71.01zM31.56 31.1c0 1.81-1.19 2.89-2.98 2.89h-9.75c-1.78 0-2.97-1.08-2.97-2.89 0-2.52.59-6.39 3.86-6.39.37 0 1.76 1.55 3.99 1.55 2.23 0 3.61-1.55 3.99-1.55 3.27 0 3.86 3.87 3.86 6.39zm-11.95-7.11c-1.15.04-2.2.54-2.95 1.43h-1.5c-1.11 0-2.16-.53-2.16-1.77 0-.91-.03-3.94 1.38-3.94.24 0 1.4.95 2.9.95a4.4 4.4 0 0 0 1.49-.26 5.1 5.1 0 0 0 .84 3.59z"/></defs><g transform="translate(-13 -14)"><use fill="#616e79" xlink:href="#a"/></g></svg>