<svg xmlns="http://www.w3.org/2000/svg" xmlns:xlink="http://www.w3.org/1999/xlink" width="4" height="7" viewBox="0 0 4 7"><defs><path id="a" d="M1696 648.58a.24.24 0 0 0-.07-.16l-.34-.35a.26.26 0 0 0-.16-.07.24.24 0 0 0-.16.07l-3.2 3.27a.24.24 0 0 0-.07.16c0 .06.03.12.07.16l3.2 3.27c.04.04.1.07.16.07.05 0 .12-.03.16-.07l.34-.35a.26.26 0 0 0 .07-.16.24.24 0 0 0-.07-.16l-2.7-2.76 2.7-2.76c.04-.04.07-.1.07-.16"/></defs><g transform="translate(-1692 -648)"><use fill="#bbc5cd" xlink:href="#a"/></g></svg>