<svg xmlns="http://www.w3.org/2000/svg" xmlns:xlink="http://www.w3.org/1999/xlink" width="198" height="22" viewBox="0 0 198 22"><defs><path id="a" d="M100 89.09h3.61v21.75H100zm14.73 6.07v15.68h-3.62V89.09h3.36l12.15 15.68V89.09h3.62v21.75h-3.62zm29.23 15.68l-8.87-21.75h4.04l6.87 17.68 6.92-17.68h3.91l-8.99 21.75zm17.3-21.75h16.02v3.29h-16.02zm0 9.11h16.02v3.29h-16.02zm0 9.35h16.02v3.29h-16.02zm26.36-12.39v15.68h-3.61V89.09h3.36l12.14 15.68V89.09h3.62v21.75h-3.62zm30.76 15.68h-3.61V92.38l-7.25.01v-3.3h18.1v3.3l-7.24-.01zm12.89-10.87c0 4.32 3.65 7.73 8.01 7.73a7.8 7.8 0 0 0 7.91-7.73 7.76 7.76 0 0 0-7.91-7.68c-4.39 0-8.01 3.36-8.01 7.68zm-3.82 0c0-6.25 5.15-10.97 11.79-10.97 6.65 0 11.79 4.75 11.79 10.97 0 6.21-5.14 11.03-11.79 11.03-6.64 0-11.79-4.82-11.79-11.03zm43.29 10.87l-4.07-6.58c-.32.03-.63.01-.98.01h-5.43v6.57h-3.62v-9.86h9.05c3.43 0 5.37-1.42 5.37-4.37 0-2.86-1.97-4.22-5.41-4.22l-5.13-.01h-3.88v-3.29h9.01c5.69 0 8.97 2.71 8.97 7.43 0 3.48-1.66 5.93-4.61 7.05l4.99 7.27zm18.99-7.08v7.08h-3.62v-7.08l-8.27-14.67h3.78l6.35 10.6 6.22-10.6H298z"/><path id="b" d="M239.62 96c2 0 3.62 1.59 3.62 3.54a3.58 3.58 0 0 1-3.62 3.54c-2 0-3.62-1.58-3.62-3.54a3.58 3.58 0 0 1 3.62-3.54"/></defs><g transform="translate(-100 -89)"><use fill="#fff" xlink:href="#a"/></g><g transform="translate(-100 -89)"><use fill="#7cd543" xlink:href="#b"/></g></svg>