<svg xmlns="http://www.w3.org/2000/svg" xmlns:xlink="http://www.w3.org/1999/xlink" width="10" height="12" viewBox="0 0 10 12"><defs><path id="a" d="M772 265v6.25a.7.7 0 0 1-.22.53.7.7 0 0 1-.53.22h-8.5a.7.7 0 0 1-.53-.22.7.7 0 0 1-.22-.53v-10.5a.7.7 0 0 1 .22-.53.7.7 0 0 1 .53-.22H767v4.25c0 .21.07.39.22.53a.7.7 0 0 0 .53.22zm-2 4.25a.24.24 0 0 0-.07-.18.24.24 0 0 0-.18-.07h-5.5a.24.24 0 0 0-.18.07.24.24 0 0 0-.07.18v.5c0 .07.02.13.07.18.05.05.11.07.18.07h5.5c.07 0 .13-.02.18-.07a.24.24 0 0 0 .07-.18zm0-2a.24.24 0 0 0-.07-.18.24.24 0 0 0-.18-.07h-5.5a.24.24 0 0 0-.18.07.24.24 0 0 0-.07.18v.5c0 .07.02.13.07.18.05.05.11.07.18.07h5.5c.07 0 .13-.02.18-.07a.24.24 0 0 0 .07-.18z"/><path id="b" d="M771.49 262.96l-2.45-2.45A1.93 1.93 0 0 0 768 260v4h4a1.93 1.93 0 0 0-.51-1.04z"/></defs><g transform="translate(-762 -260)"><use fill="#8694a1" xlink:href="#a"/></g><g transform="translate(-762 -260)"><use fill="#8694a1" xlink:href="#b"/></g></svg>