<svg xmlns="http://www.w3.org/2000/svg" xmlns:xlink="http://www.w3.org/1999/xlink" width="15" height="15" viewBox="0 0 15 15"><defs><path id="a" d="M1844 458.59c0 .34-.14.67-.37.89l-1.64 1.65-4.12-4.12 1.64-1.63a1.25 1.25 0 0 1 1.79 0l2.33 2.31c.23.24.37.57.37.9zm-2.64 3.17l-8.24 8.24H1829v-4.12l8.24-8.24zm-3.59-2.22c0-.12-.09-.21-.22-.21a.23.23 0 0 0-.17.07l-5.36 5.36a.23.23 0 0 0-.07.17c0 .13.09.22.22.22.06 0 .12-.02.17-.07l5.36-5.37a.23.23 0 0 0 .07-.17zm-4.28 8.29l-2.32-2.33-.9.91v1.05h1.26v1.27h1.06z"/></defs><g transform="translate(-1829 -455)"><use fill="#bbc5cd" xlink:href="#a"/></g></svg>