<svg xmlns="http://www.w3.org/2000/svg" xmlns:xlink="http://www.w3.org/1999/xlink" width="9" height="14" viewBox="0 0 9 14"><defs><path id="a6dta" d="M1713.5 867c.82 0 1.5.68 1.5 1.5s-.68 1.5-1.5 1.5a1.5 1.5 0 0 1-1.5-1.5c0-.82.68-1.5 1.5-1.5zm-.18-11c2.36 0 4.68 1.15 4.68 3.91 0 2.55-2.75 3.53-3.34 4.45-.44.68-.3 1.64-1.51 1.64-.8 0-1.18-.68-1.18-1.31 0-2.33 3.23-2.86 3.23-4.78 0-1.05-.67-1.68-1.77-1.68-2.36 0-1.44 2.58-3.23 2.58-.65 0-1.2-.4-1.2-1.19 0-1.92 2.06-3.62 4.32-3.62z"/></defs><g><g transform="translate(-1709 -856)"><use fill="#fff" xlink:href="#a6dta"/></g></g></svg>