<?xml version="1.0" encoding="utf-8"?>
<svg xmlns="http://www.w3.org/2000/svg">
<symbol id="add" viewBox="0 0 42 42"><path d="M37.059 16H26V4.941C26 2.224 23.718 0 21 0s-5 2.224-5 4.941V16H4.941C2.224 16 0 18.282 0 21s2.224 5 4.941 5H16v11.059C16 39.776 18.282 42 21 42s5-2.224 5-4.941V26h11.059C39.776 26 42 23.718 42 21s-2.224-5-4.941-5z"/>
</symbol>
<symbol id="admin" viewBox="0 0 22 20"><title>icon</title><path d="M21.416 3.324c0-.167-1.438-.324-1.662-.346a3.002 3.002 0 0 0-.335-.58c.101-.223.569-1.338.569-1.54a.093.093 0 0 0-.045-.077C19.81.703 18.616 0 18.561 0l-.068.022c-.379.38-.714.815-1.025 1.25-.113-.011-.224-.023-.335-.023-.112 0-.223.012-.335.023C16.687 1.104 15.851 0 15.705 0c-.056 0-1.249.714-1.383.78a.096.096 0 0 0-.045.079c0 .19.469 1.316.57 1.539-.135.178-.246.38-.335.58-.224.022-1.662.179-1.662.346v1.562c0 .167 1.438.323 1.662.345.089.212.2.402.335.58-.101.223-.57 1.35-.57 1.54 0 .022.011.056.045.077.134.079 1.327.792 1.383.792.146 0 .982-1.115 1.093-1.282.112.01.223.022.335.022.111 0 .222-.011.335-.022.111.167.947 1.282 1.093 1.282.055 0 1.249-.713 1.382-.792.035-.021.045-.044.045-.077 0-.201-.468-1.317-.569-1.54.134-.178.246-.368.335-.58.224-.022 1.662-.178 1.662-.345V3.324zm0 11.42c0-.166-1.438-.322-1.662-.344a2.972 2.972 0 0 0-.335-.58c.101-.223.569-1.338.569-1.54a.095.095 0 0 0-.045-.078c-.133-.078-1.327-.78-1.382-.78l-.068.023a9.825 9.825 0 0 0-1.025 1.249 3.178 3.178 0 0 0-.335-.023c-.112 0-.223.01-.335.023-.111-.167-.947-1.272-1.093-1.272-.056 0-1.249.714-1.383.78a.097.097 0 0 0-.045.079c0 .189.469 1.316.57 1.539a2.923 2.923 0 0 0-.335.58c-.224.022-1.662.178-1.662.345v1.563c0 .167 1.438.323 1.662.346.089.212.2.4.335.58-.101.222-.57 1.349-.57 1.539 0 .022.011.055.045.078.134.078 1.327.792 1.383.792.146 0 .982-1.115 1.093-1.283.112.01.223.022.335.022.111 0 .222-.011.335-.022.111.168.947 1.283 1.093 1.283.055 0 1.249-.714 1.382-.792.035-.023.045-.045.045-.078 0-.201-.468-1.317-.569-1.54.134-.178.246-.367.335-.58.224-.022 1.662-.178 1.662-.345v-1.563zm-7.139-5.943a.345.345 0 0 0-.267-.335l-1.696-.257a7.137 7.137 0 0 0-.379-.914c.312-.435.647-.837.97-1.272a.378.378 0 0 0 .078-.212c0-.312-1.316-1.517-1.606-1.784a.358.358 0 0 0-.234-.09.345.345 0 0 0-.223.078l-1.317.993a5.527 5.527 0 0 0-.836-.346l-.256-1.706c-.023-.156-.179-.28-.335-.28H6.102a.355.355 0 0 0-.335.269c-.145.546-.201 1.16-.257 1.717-.301.1-.58.212-.859.357L3.369 4.015a.426.426 0 0 0-.235-.078c-.323 0-1.572 1.35-1.796 1.65a.345.345 0 0 0-.078.224c0 .078.034.157.078.223.357.424.692.837 1.004 1.283a5.144 5.144 0 0 0-.357.848l-1.729.267c-.145.023-.256.19-.256.335v2.064c0 .156.111.3.268.323l1.695.268c.1.313.234.613.391.914-.324.436-.659.848-.982 1.272a.378.378 0 0 0-.078.212c0 .324 1.316 1.517 1.606 1.785a.364.364 0 0 0 .234.089c.078 0 .168-.022.223-.078l1.317-.993c.267.134.546.257.836.346l.257 1.707c.022.155.178.278.335.278h2.074c.156 0 .29-.111.335-.267.145-.547.2-1.16.256-1.73.301-.09.58-.2.859-.345l1.283 1.004a.425.425 0 0 0 .234.078c.323 0 1.573-1.361 1.795-1.662a.295.295 0 0 0 .079-.212.384.384 0 0 0-.079-.223 18.565 18.565 0 0 1-1.003-1.282 5.19 5.19 0 0 0 .357-.85l1.728-.266c.146-.022.257-.19.257-.335V8.8zm4.284-4.696a1.43 1.43 0 0 1-1.428 1.427 1.43 1.43 0 0 1-1.428-1.427c0-.781.647-1.428 1.428-1.428.781 0 1.428.647 1.428 1.428zm0 11.422a1.43 1.43 0 0 1-1.428 1.427 1.43 1.43 0 0 1-1.428-1.427c0-.782.647-1.428 1.428-1.428.781 0 1.428.646 1.428 1.428zM9.994 9.816a2.86 2.86 0 0 1-2.855 2.855 2.86 2.86 0 0 1-2.856-2.855A2.862 2.862 0 0 1 7.139 6.96a2.861 2.861 0 0 1 2.855 2.856z"/>
</symbol>
<symbol id="arrow-r" viewBox="0 0 31.49 31.49"><path d="M21.205 5.007a1.112 1.112 0 0 0-1.587 0 1.12 1.12 0 0 0 0 1.571l8.047 8.047H1.111A1.106 1.106 0 0 0 0 15.737c0 .619.492 1.127 1.111 1.127h26.554l-8.047 8.032c-.429.444-.429 1.159 0 1.587a1.112 1.112 0 0 0 1.587 0l9.952-9.952a1.093 1.093 0 0 0 0-1.571l-9.952-9.953z"/>
</symbol>
<symbol id="basket" viewBox="0 0 59 59"><path d="M52.5 6H38.456c-.11-1.25-.495-3.358-1.813-4.711C35.809.434 34.751 0 33.499 0H23.5c-1.252 0-2.31.434-3.144 1.289C19.038 2.642 18.653 4.75 18.543 6H6.5a1 1 0 1 0 0 2h2.041l1.915 46.021C10.493 55.743 11.565 59 15.364 59h28.272c3.799 0 4.871-3.257 4.907-4.958L50.459 8H52.5a1 1 0 1 0 0-2zm-32 44a1 1 0 1 1-2 0V17a1 1 0 1 1 2 0v33zm10 0a1 1 0 1 1-2 0V17a1 1 0 1 1 2 0v33zm10 0a1 1 0 1 1-2 0V17a1 1 0 1 1 2 0v33zM21.792 2.681C22.24 2.223 22.799 2 23.5 2h9.999c.701 0 1.26.223 1.708.681.805.823 1.128 2.271 1.24 3.319H20.553c.112-1.048.435-2.496 1.239-3.319z" fill="#d9a5bf"/>
</symbol>
<symbol id="bookmark" viewBox="0 0 512 512"><path d="M444.862 109.779L338.221 3.138A10.63 10.63 0 0 0 330.667 0h-224C83.146 0 64 19.135 64 42.667v426.667C64 492.865 83.146 512 106.667 512h298.667c23.52 0 42.666-19.135 42.666-42.667v-352a10.63 10.63 0 0 0-3.138-7.554zM128 21.333h106.667V160a10.67 10.67 0 0 1-5.063 9.073 10.602 10.602 0 0 1-5.604 1.594c-1.635 0-3.26-.375-4.771-1.125l-37.896-18.948-37.896 18.948c-3.313 1.646-7.25 1.469-10.375-.469A10.672 10.672 0 0 1 128 160V21.333zm181.333 405.334H138.667A10.66 10.66 0 0 1 128 416a10.66 10.66 0 0 1 10.667-10.667h170.667A10.66 10.66 0 0 1 320.001 416a10.662 10.662 0 0 1-10.668 10.667zm64-85.334H138.667A10.66 10.66 0 0 1 128 330.666a10.66 10.66 0 0 1 10.667-10.667h234.667a10.66 10.66 0 0 1 10.667 10.667 10.662 10.662 0 0 1-10.668 10.667zm0-85.333H138.667A10.66 10.66 0 0 1 128 245.333a10.66 10.66 0 0 1 10.667-10.667h234.667a10.66 10.66 0 0 1 10.667 10.667A10.662 10.662 0 0 1 373.333 256zm-10.666-149.333c-11.771 0-21.333-9.573-21.333-21.333V36.417l70.25 70.25h-48.917z"/>
</symbol>
<symbol id="box-strong" viewBox="0 0 486 486"><path d="M398.1 263.738v94.7l-155.5 46.8v-324.2l42.5 12.8c5.9-14.2 14.5-27 25-38l-82.9-24.9-1.2-.3-1.2-.3c-2.6-.5-5.2-.5-7.8 0l-1.2.3c-.4.1-.8.1-1.2.3l-44.6 13.4-44.2 13.3v111.4l-49.2 9.3v-106l-43 12.9-18.1 5.4c-9.2 2.8-15.5 11.2-15.5 20.8v263c0 9.6 6.3 18.1 15.5 20.8l199 59.9c2 .6 4.2.9 6.3.9s4.2-.3 6.3-.9l199-59.9c9.2-2.8 15.5-11.2 15.5-20.8v-118.7c-13.4 5.1-27.9 8-43.1 8h-.4z"/><path d="M398.5 53.338c-48.4 0-87.5 39.2-87.5 87.5 0 48.4 39.2 87.5 87.5 87.5s87.5-39.2 87.5-87.5-39.2-87.5-87.5-87.5zm5.5 106.7l-16.8 16.7-16.7-16.8-16.1-16.2 16.8-16.7 16.1 16.2 38.6-38.4 16.7 16.8-38.6 38.4z"/>
</symbol>
<symbol id="cancel-lime-bold" viewBox="0 0 41.756 41.756"><path d="M27.948 20.878L40.291 8.536a5 5 0 1 0-7.07-7.071L20.878 13.809 8.535 1.465a5 5 0 0 0-7.07 7.071l12.342 12.342L1.465 33.22a5 5 0 1 0 7.07 7.071l12.343-12.342 12.343 12.343c.976.977 2.256 1.464 3.535 1.464s2.56-.487 3.535-1.464a5 5 0 0 0 0-7.071L27.948 20.878z" fill="#91DC5A"/>
</symbol>
<symbol id="cancel-lime" viewBox="0 0 212.982 212.982"><path d="M131.804 106.491l75.936-75.936c6.99-6.99 6.99-18.323 0-25.312-6.99-6.99-18.322-6.99-25.312 0L106.491 81.18 30.554 5.242c-6.99-6.99-18.322-6.99-25.312 0-6.989 6.99-6.989 18.323 0 25.312l75.937 75.936-75.937 75.937c-6.989 6.99-6.989 18.323 0 25.312 6.99 6.99 18.322 6.99 25.312 0l75.937-75.937 75.937 75.937c6.989 6.99 18.322 6.99 25.312 0 6.99-6.99 6.99-18.322 0-25.312l-75.936-75.936z" fill="#91DC5A" fill-rule="evenodd" clip-rule="evenodd"/>
</symbol>
<symbol id="cart-trash" viewBox="0 0 372.693 372.693"><path d="M322.248 51.317h-67.296v-18.09C254.952 14.904 240.047 0 221.727 0h-70.755c-18.323 0-33.233 14.904-33.233 33.228v18.084H50.452c-18.324 0-33.237 14.906-33.237 33.218v35.38c0 9.535 7.755 17.285 17.297 17.285h23.476v202.274c0 18.321 14.907 33.225 33.225 33.225h194.472c18.32 0 33.236-14.915 33.236-33.225V137.201h19.264c9.535 0 17.294-7.75 17.294-17.285v-35.38c-.001-18.312-14.911-33.219-33.231-33.219zm-169.94-16.741h68.067v16.741h-68.067V34.576zm1.045 271.74c0 9.188-7.485 16.67-16.681 16.67-9.206 0-16.696-7.482-16.696-16.67v-139.59c0-9.196 7.491-16.693 16.696-16.693 9.196 0 16.681 7.497 16.681 16.693v139.59zm49.675 0c0 9.188-7.481 16.67-16.681 16.67-9.197 0-16.681-7.482-16.681-16.67v-139.59c0-9.196 7.484-16.693 16.681-16.693 9.206 0 16.681 7.497 16.681 16.693v139.59zm49.695 0c0 9.188-7.493 16.67-16.692 16.67-9.2 0-16.67-7.482-16.67-16.67v-139.59c0-9.196 7.47-16.693 16.67-16.693 9.199 0 16.692 7.497 16.692 16.693v139.59z"/>
</symbol>
<symbol id="cube-gray" viewBox="0 0 82.626 82.627"><path d="M5.206 19.956l.199 42.771c.003.55.306 1.054.789 1.314l34.161 17.887c.223.119.467.179.711.179h.003c.103.117.218.227.355.309a1.498 1.498 0 0 0 1.481.031l33.729-18.292c.484-.263.787-.77.787-1.319v-44.5c0-.013-.005-.025-.005-.039-.001-.011.003-.021.003-.033-.002-.043-.019-.082-.022-.124-.013-.082-.022-.164-.047-.243-.018-.055-.041-.104-.064-.157a1.387 1.387 0 0 0-.104-.203c-.031-.05-.068-.095-.105-.141a1.406 1.406 0 0 0-.293-.274c-.032-.022-.059-.053-.094-.073-.032-.02-.069-.028-.104-.045-.029-.015-.052-.036-.081-.049L41.747.118a1.503 1.503 0 0 0-1.258.042L6.131 18.071c-.504.254-.822.77-.825 1.333 0 .009.004.017.004.025a1.512 1.512 0 0 0-.104.527zm67.25-1.455l-30.28 16.93-32.065-16.006L41.218 3.151l31.238 15.35zM43.692 78.61V38.021l30.729-17.173v41.09L43.692 78.61z"/>
</symbol>
<symbol id="cube" viewBox="0 0 82.626 82.627"><path d="M5.206 19.956l.199 42.771c.003.55.306 1.054.789 1.314l34.161 17.887c.223.119.467.179.711.179h.003c.103.117.218.227.355.309a1.498 1.498 0 0 0 1.481.031l33.729-18.292c.484-.263.787-.77.787-1.319v-44.5c0-.013-.005-.025-.005-.039-.001-.011.003-.021.003-.033-.002-.043-.019-.082-.022-.124-.013-.082-.022-.164-.047-.243-.018-.055-.041-.104-.064-.157a1.387 1.387 0 0 0-.104-.203c-.031-.05-.068-.095-.105-.141a1.406 1.406 0 0 0-.293-.274c-.032-.022-.059-.053-.094-.073-.032-.02-.069-.028-.104-.045-.029-.015-.052-.036-.081-.049L41.747.118a1.503 1.503 0 0 0-1.258.042L6.131 18.071c-.504.254-.822.77-.825 1.333 0 .009.004.017.004.025a1.512 1.512 0 0 0-.104.527zm67.25-1.455l-30.28 16.93-32.065-16.006L41.218 3.151l31.238 15.35zM43.692 78.61V38.021l30.729-17.173v41.09L43.692 78.61z"/>
</symbol>
<symbol id="dashboard" viewBox="0 0 22 21"><title>icon</title><path d="M20.439 9.434C20.439 4.226 16.213 0 11.005 0v9.434h9.434zm-8.709 1.572l6.694 6.707a9.398 9.398 0 0 0 2.801-6.707H11.73zm-2.297-.073v-9.36C4.225 1.573 0 5.798 0 11.006s4.225 9.434 9.433 9.434a9.398 9.398 0 0 0 6.707-2.801l-6.707-6.706z"/>
</symbol>
<symbol id="delete" viewBox="0 0 348.333 348.334"><path d="M336.559 68.611L231.016 174.165l105.543 105.549c15.699 15.705 15.699 41.145 0 56.85-7.844 7.844-18.128 11.769-28.407 11.769-10.296 0-20.581-3.919-28.419-11.769L174.167 231.003 68.609 336.563c-7.843 7.844-18.128 11.769-28.416 11.769-10.285 0-20.563-3.919-28.413-11.769-15.699-15.698-15.699-41.139 0-56.85l105.54-105.549L11.774 68.611c-15.699-15.699-15.699-41.145 0-56.844 15.696-15.687 41.127-15.687 56.829 0l105.563 105.554L279.721 11.767c15.705-15.687 41.139-15.687 56.832 0 15.705 15.699 15.705 41.145.006 56.844z"/>
</symbol>
<symbol id="down-arrow-1" viewBox="0 0 129 129"><path d="M121.3 34.6c-1.6-1.6-4.2-1.6-5.8 0l-51 51.1-51.1-51.1c-1.6-1.6-4.2-1.6-5.8 0-1.6 1.6-1.6 4.2 0 5.8l53.9 53.9c.8.8 1.8 1.2 2.9 1.2 1 0 2.1-.4 2.9-1.2l53.9-53.9c1.7-1.6 1.7-4.2.1-5.8z" fill="#b7babd"/>
</symbol>
<symbol id="down-arrow" viewBox="0 0 129 129"><path d="M121.3 34.6c-1.6-1.6-4.2-1.6-5.8 0l-51 51.1-51.1-51.1c-1.6-1.6-4.2-1.6-5.8 0-1.6 1.6-1.6 4.2 0 5.8l53.9 53.9c.8.8 1.8 1.2 2.9 1.2 1 0 2.1-.4 2.9-1.2l53.9-53.9c1.7-1.6 1.7-4.2.1-5.8z"/>
</symbol>
<symbol id="filter" viewBox="0 0 472.615 472.615"><path fill="#a4abb0" d="M472.615 12.908H0l180.081 189.721-.015 257.079 112.484-58.183-.016-198.896z"/>
</symbol>
<symbol id="floppy" viewBox="0 0 459 459"><path d="M357 0H51C22.95 0 0 22.95 0 51v357c0 28.05 22.95 51 51 51h357c28.05 0 51-22.95 51-51V102L357 0zM229.5 408c-43.35 0-76.5-33.15-76.5-76.5s33.15-76.5 76.5-76.5 76.5 33.15 76.5 76.5-33.15 76.5-76.5 76.5zM306 153H51V51h255v102z"/>
</symbol>
<symbol id="flying" viewBox="0 0 512 512"><path d="M497.081 14.933a5.121 5.121 0 0 0-5.703-1.048L26.753 221.692c-6.771 3.027-11.623 9.185-12.947 16.471a22.505 22.505 0 0 0 6.206 20.006l100.095 100.095L392.792 111.76c1.009-.93 2.585-.89 3.563.088.979.974 1.009 2.553.096 3.584L149.978 388.117l12.693 98.073a9.7 9.7 0 0 0 5.482 7.553c3.027 1.425 8.979.101 11.059-2.492 11.658-14.422 32.234-42.187 32.234-42.187l42.376 42.906a22.531 22.531 0 0 0 20.006 6.215 22.482 22.482 0 0 0 16.475-12.944L498.12 20.622c.882-1.93.443-4.193-1.039-5.689z" fill="#FFF"/>
</symbol>
<symbol id="gear-new" viewBox="0 0 268.765 268.765"><path d="M267.92 119.461c-.425-3.778-4.83-6.617-8.639-6.617-12.315 0-23.243-7.231-27.826-18.414-4.682-11.454-1.663-24.812 7.515-33.231a7.463 7.463 0 0 0 .817-10.133 132.977 132.977 0 0 0-21.289-21.5c-3.063-2.458-7.557-2.116-10.213.825-8.01 8.871-22.398 12.168-33.516 7.529-11.57-4.867-18.866-16.591-18.152-29.176a7.455 7.455 0 0 0-6.595-7.849 134.163 134.163 0 0 0-30.232-.08 7.478 7.478 0 0 0-6.654 7.689c.438 12.461-6.946 23.98-18.401 28.672-10.985 4.487-25.272 1.218-33.266-7.574-2.642-2.896-7.063-3.252-10.141-.853a133.478 133.478 0 0 0-21.74 21.493c-2.481 3.086-2.116 7.559.802 10.214 9.353 8.47 12.373 21.944 7.514 33.53-4.639 11.046-16.109 18.165-29.24 18.165-4.261-.137-7.296 2.723-7.762 6.597a134.618 134.618 0 0 0-.058 30.561c.422 3.794 4.961 6.608 8.812 6.608 11.702-.299 22.937 6.946 27.65 18.415 4.698 11.454 1.678 24.804-7.514 33.23a7.469 7.469 0 0 0-.817 10.126 133.459 133.459 0 0 0 21.259 21.508c3.079 2.481 7.559 2.131 10.228-.81 8.04-8.893 22.427-12.184 33.501-7.536 11.599 4.852 18.895 16.575 18.181 29.167a7.464 7.464 0 0 0 6.595 7.85 133.572 133.572 0 0 0 30.233.081 7.479 7.479 0 0 0 6.653-7.696c-.451-12.454 6.946-23.973 18.386-28.657 11.059-4.517 25.286-1.211 33.281 7.572a7.51 7.51 0 0 0 10.142.848 133.787 133.787 0 0 0 21.74-21.494 7.461 7.461 0 0 0-.803-10.213c-9.353-8.47-12.388-21.946-7.529-33.524 4.568-10.899 15.612-18.217 27.491-18.217l1.662.043c3.853.313 7.398-2.655 7.865-6.588a134.504 134.504 0 0 0 .06-30.561zm-133.325 60.03c-24.718 0-44.824-20.106-44.824-44.824 0-24.717 20.106-44.824 44.824-44.824 24.717 0 44.823 20.107 44.823 44.824 0 24.718-20.106 44.824-44.823 44.824z" fill-rule="evenodd" clip-rule="evenodd"/>
</symbol>
<symbol id="generator" viewBox="0 0 20 16"><title>barcode icon</title><path d="M0 0h2v16H0zM6 0h3v16H6zM15 0h1v16h-1zM4 0h1v16H4zM18 0h2v16h-2zM11 0h2v16h-2z"/>
</symbol>
<symbol id="inventory" viewBox="0 0 22 19"><title>icon</title><path d="M18.288 5.808l-.761.747-.756-.75-.728-.724.761-.747.728.724 1.747-1.715.756.75-1.747 1.715zm-.249-4.764c-2.19 0-3.961 1.75-3.961 3.907 0 2.162 1.774 3.909 3.961 3.909C20.225 8.86 22 7.108 22 4.95s-1.775-3.907-3.961-3.907zm-.019 9.396v4.23l-7.038 2.09V2.28l1.924.572a5.54 5.54 0 0 1 1.131-1.696L10.285.042 10.23.03l-.054-.013a.952.952 0 0 0-.353 0L9.768.03c-.018.004-.036.004-.054.013L7.695.642l-2.001.594V6.21l-2.226.415V1.892l-1.947.576-.819.241A.973.973 0 0 0 0 3.64v11.745a.97.97 0 0 0 .702.93l9.008 2.675a1.049 1.049 0 0 0 .57 0l9.008-2.675a.975.975 0 0 0 .702-.93v-5.302a5.53 5.53 0 0 1-1.951.358h-.019z"/>
</symbol>
<symbol id="item" viewBox="0 0 21 21"><title>icon</title><path d="M20.439 4.717a1.57 1.57 0 0 0-1.032-1.475L10.759.098a1.597 1.597 0 0 0-.54-.098c-.184 0-.368.036-.541.098L1.032 3.242A1.57 1.57 0 0 0 0 4.717v9.434c0 .577.319 1.105.823 1.375l8.647 4.716c.234.136.491.198.749.198s.516-.062.749-.198l8.648-4.716c.504-.27.823-.798.823-1.375V4.717zm-10.22 3.095l-8.574-3.12 8.574-3.12 8.574 3.12-8.574 3.12zm.786 10.625V9.2l7.862-2.862v7.813l-7.862 4.286z"/>
</symbol>
<symbol id="left-arrow" viewBox="0 0 129 129"><path d="M88.6 121.3c.8.8 1.8 1.2 2.9 1.2s2.1-.4 2.9-1.2c1.6-1.6 1.6-4.2 0-5.8l-51-51 51-51c1.6-1.6 1.6-4.2 0-5.8s-4.2-1.6-5.8 0l-54 53.9c-1.6 1.6-1.6 4.2 0 5.8l54 53.9z"/>
</symbol>
<symbol id="list" viewBox="0 0 511.626 511.626"><path d="M63.953 164.453H9.135c-2.474 0-4.615.9-6.423 2.709C.903 168.972 0 171.114 0 173.589v54.817c0 2.473.903 4.619 2.712 6.424 1.809 1.803 3.949 2.712 6.423 2.712h54.818c2.474 0 4.615-.905 6.423-2.712 1.809-1.809 2.712-3.951 2.712-6.424v-54.817c0-2.475-.904-4.617-2.712-6.427-1.808-1.806-3.949-2.709-6.423-2.709zM63.953 383.722H9.135c-2.474 0-4.615.896-6.423 2.707C.903 388.238 0 390.378 0 392.854v54.82c0 2.471.903 4.609 2.712 6.42 1.809 1.813 3.949 2.714 6.423 2.714h54.818c2.474 0 4.615-.903 6.423-2.714 1.809-1.807 2.712-3.949 2.712-6.42v-54.82c0-2.477-.904-4.616-2.712-6.426-1.808-1.803-3.949-2.706-6.423-2.706zM63.953 274.082H9.135c-2.474 0-4.615.91-6.423 2.714S0 280.749 0 283.22v54.815c0 2.478.903 4.62 2.712 6.427 1.809 1.808 3.949 2.707 6.423 2.707h54.818c2.474 0 4.615-.896 6.423-2.707 1.809-1.807 2.712-3.949 2.712-6.427V283.22c0-2.471-.904-4.613-2.712-6.424-1.808-1.807-3.949-2.714-6.423-2.714zM63.953 54.817H9.135c-2.474 0-4.615.903-6.423 2.712S0 61.479 0 63.953v54.817c0 2.475.903 4.615 2.712 6.424s3.949 2.712 6.423 2.712h54.818c2.474 0 4.615-.9 6.423-2.712 1.809-1.809 2.712-3.949 2.712-6.424V63.953c0-2.475-.904-4.615-2.712-6.424-1.808-1.804-3.949-2.712-6.423-2.712zM502.49 383.722H118.771c-2.474 0-4.615.896-6.423 2.707-1.809 1.81-2.712 3.949-2.712 6.426v54.82c0 2.471.903 4.609 2.712 6.42 1.809 1.813 3.946 2.714 6.423 2.714H502.49c2.478 0 4.616-.903 6.427-2.714 1.81-1.811 2.71-3.949 2.71-6.42v-54.82c0-2.477-.903-4.616-2.71-6.426-1.811-1.804-3.95-2.707-6.427-2.707zM502.49 274.082H118.771c-2.474 0-4.615.91-6.423 2.714s-2.712 3.953-2.712 6.424v54.815c0 2.478.903 4.62 2.712 6.427 1.809 1.808 3.946 2.707 6.423 2.707H502.49c2.478 0 4.616-.896 6.427-2.707 1.81-1.807 2.71-3.949 2.71-6.427V283.22c0-2.471-.903-4.613-2.71-6.424-1.811-1.804-3.95-2.714-6.427-2.714zM508.917 57.529c-1.811-1.805-3.949-2.712-6.427-2.712H118.771c-2.474 0-4.615.903-6.423 2.712s-2.712 3.949-2.712 6.424v54.817c0 2.475.903 4.615 2.712 6.424s3.946 2.712 6.423 2.712H502.49c2.478 0 4.616-.9 6.427-2.712 1.81-1.809 2.71-3.949 2.71-6.424V63.953c-.001-2.474-.904-4.615-2.71-6.424zM502.49 164.453H118.771c-2.474 0-4.615.9-6.423 2.709-1.809 1.81-2.712 3.952-2.712 6.427v54.817c0 2.473.903 4.615 2.712 6.424 1.809 1.803 3.946 2.712 6.423 2.712H502.49c2.478 0 4.616-.905 6.427-2.712 1.81-1.809 2.71-3.951 2.71-6.424v-54.817c0-2.475-.903-4.617-2.71-6.427-1.811-1.806-3.95-2.709-6.427-2.709z"/>
</symbol>
<symbol id="lupe" viewBox="0 0 56.966 56.966"><path d="M55.146 51.887L41.588 37.786A22.926 22.926 0 0 0 46.984 23c0-12.682-10.318-23-23-23s-23 10.318-23 23 10.318 23 23 23c4.761 0 9.298-1.436 13.177-4.162l13.661 14.208c.571.593 1.339.92 2.162.92.779 0 1.518-.297 2.079-.837a3.004 3.004 0 0 0 .083-4.242zM23.984 6c9.374 0 17 7.626 17 17s-7.626 17-17 17-17-7.626-17-17 7.626-17 17-17z"/>
</symbol>
<symbol id="minus" viewBox="0 0 42 42"><path d="M0 19h42v4H0z"/>
</symbol>
<symbol id="pen-new" viewBox="0 0 493.638 493.638"><path d="M427.092 118.538L99.89 445.738l-9.651-9.652 327.2-327.201-58.731-58.731L31.376 377.481l84.646 84.649 327.329-327.332zM492.627 85.523c-10.064 23.448-43.053 43.053-43.053 43.053l-84.646-84.644s27.29-33.513 43.054-43.053 94.71 61.195 84.645 84.644zM110.059 468.088L.127 493.638l25.286-110.191z"/>
</symbol>
<symbol id="people-gray" viewBox="0 0 548.169 548.169"><path d="M109.634 164.452c20.179 0 37.402-7.135 51.674-21.411 14.277-14.275 21.416-31.503 21.416-51.678 0-20.173-7.139-37.401-21.416-51.678-14.272-14.275-31.496-21.414-51.674-21.414-20.177 0-37.401 7.139-51.676 21.414-14.274 14.277-21.413 31.501-21.413 51.678 0 20.179 7.139 37.403 21.413 51.678 14.275 14.272 31.499 21.411 51.676 21.411zM196.569 278.519c21.413 21.406 47.248 32.114 77.516 32.114 30.269 0 56.103-10.708 77.515-32.114 21.409-21.42 32.117-47.258 32.117-77.52 0-30.264-10.708-56.101-32.117-77.515-21.412-21.414-47.246-32.121-77.515-32.121-30.268 0-56.105 10.709-77.516 32.121-21.411 21.411-32.12 47.248-32.12 77.515s10.709 56.103 32.12 77.52zM438.543 164.452c20.17 0 37.397-7.135 51.671-21.411 14.274-14.275 21.409-31.503 21.409-51.678 0-20.173-7.135-37.401-21.409-51.678-14.273-14.275-31.501-21.414-51.671-21.414-20.184 0-37.407 7.139-51.682 21.414-14.271 14.277-21.409 31.501-21.409 51.678 0 20.179 7.139 37.403 21.409 51.678 14.275 14.272 31.498 21.411 51.682 21.411zM512.763 164.456c-1.136 0-5.276 1.999-12.415 5.996-7.132 3.999-16.416 8.044-27.833 12.137-11.416 4.089-22.747 6.136-33.972 6.136-12.758 0-25.406-2.187-37.973-6.567.945 7.039 1.424 13.322 1.424 18.842 0 26.457-7.71 50.819-23.134 73.089 30.841.955 56.056 13.134 75.668 36.552h38.256c15.605 0 28.739-3.863 39.396-11.57 10.657-7.703 15.989-18.986 15.989-33.83.003-67.194-11.793-100.789-35.406-100.785z"/><path d="M470.096 395.284c-1.999-11.136-4.524-21.464-7.57-30.978-3.046-9.521-7.139-18.794-12.271-27.836-5.141-9.034-11.044-16.748-17.706-23.127-6.667-6.379-14.805-11.464-24.414-15.276-9.609-3.806-20.225-5.708-31.833-5.708-1.906 0-5.996 2.047-12.278 6.14a3489 3489 0 0 0-20.841 13.702c-7.615 5.037-17.789 9.609-30.55 13.702-12.762 4.093-25.608 6.14-38.544 6.14-12.941 0-25.791-2.047-38.544-6.14-12.756-4.093-22.936-8.665-30.55-13.702a3554.86 3554.86 0 0 0-20.841-13.702c-6.283-4.093-10.373-6.14-12.279-6.14-11.609 0-22.22 1.902-31.833 5.708-9.613 3.812-17.749 8.897-24.41 15.276-6.667 6.372-12.562 14.093-17.705 23.127-5.137 9.042-9.229 18.315-12.275 27.836-3.045 9.514-5.564 19.842-7.566 30.978-2 11.136-3.331 21.505-3.997 31.121a427.043 427.043 0 0 0-.999 29.554c0 22.836 6.945 40.874 20.839 54.098 13.899 13.223 32.363 19.842 55.389 19.842h249.535c23.028 0 41.49-6.619 55.392-19.842 13.894-13.224 20.841-31.262 20.841-54.098 0-10.088-.335-19.938-.992-29.554-.676-9.616-2.007-19.986-3.998-31.121zM169.303 274.088c-15.418-22.27-23.125-46.632-23.122-73.089 0-5.52.477-11.799 1.427-18.842-12.564 4.377-25.221 6.567-37.974 6.567-11.23 0-22.552-2.046-33.974-6.136-11.417-4.093-20.699-8.138-27.834-12.137-7.138-3.997-11.281-5.996-12.422-5.996C11.801 164.456 0 198.051 0 265.24c0 14.844 5.33 26.127 15.987 33.83 10.66 7.707 23.794 11.563 39.397 11.563h38.26c19.607-23.411 44.823-35.591 75.659-36.545z"/>
</symbol>
<symbol id="planning" viewBox="0 0 19 20"><title>Fill 1</title><path d="M18.561 4.283c0-.781-.646-1.428-1.428-1.428h-1.427V1.784A1.79 1.79 0 0 0 13.921 0h-.714a1.79 1.79 0 0 0-1.785 1.784v1.071H7.139V1.784A1.79 1.79 0 0 0 5.354 0h-.713a1.79 1.79 0 0 0-1.785 1.784v1.071H1.428C.647 2.855 0 3.502 0 4.283V18.56c0 .782.647 1.428 1.428 1.428h15.705c.782 0 1.428-.646 1.428-1.428V4.283zm-4.283.714a.352.352 0 0 1-.357.357h-.714a.352.352 0 0 1-.357-.357V1.784c0-.2.156-.356.357-.356h.714c.201 0 .357.156.357.356v3.213zm-8.567 0a.352.352 0 0 1-.357.357h-.713a.352.352 0 0 1-.357-.357V1.784c0-.2.156-.356.357-.356h.713c.201 0 .357.156.357.356v3.213zM1.428 18.56h15.705V7.138H1.428V18.56zm13.107-7.808a.366.366 0 0 0 0-.502l-.514-.512a.362.362 0 0 0-.502 0L8.567 14.69l-2.454-2.454a.364.364 0 0 0-.502 0l-.513.513a.364.364 0 0 0 0 .502l3.213 3.213a.378.378 0 0 0 .512 0l5.712-5.712z" fill-rule="evenodd"/>
</symbol>
<symbol id="points" viewBox="0 0 408 408"><path d="M204 102c28.05 0 51-22.95 51-51S232.05 0 204 0s-51 22.95-51 51 22.95 51 51 51zm0 51c-28.05 0-51 22.95-51 51s22.95 51 51 51 51-22.95 51-51-22.95-51-51-51zm0 153c-28.05 0-51 22.95-51 51s22.95 51 51 51 51-22.95 51-51-22.95-51-51-51z"/>
</symbol>
<symbol id="reload-lime" viewBox="0 0 512 512"><path d="M256.003 477.29c-122.018 0-221.286-99.268-221.286-221.285 0-85.901 48.916-160.105 119.671-196.648l5.985 10.366c6.565 11.371 23.005 11.354 29.559 0L215.409 25.6c6.566-11.372-1.671-25.6-14.78-25.6H149.68c-10.423 0-23.549 10.414-12.372 29.771C56.937 71.911.585 156.846.585 256.005c0 141.17 114.237 255.419 255.42 255.419 9.425 0 17.067-7.641 17.067-17.067-.001-9.426-7.642-17.067-17.069-17.067zM511.415 255.995C511.415 114.825 397.179.576 255.996.576c-9.425 0-17.067 7.641-17.067 17.067s7.641 17.067 17.067 17.067c122.018 0 221.286 99.268 221.286 221.285 0 85.901-48.917 160.105-119.672 196.648l-5.985-10.366c-6.565-11.371-23.005-11.354-29.56 0L296.591 486.4c-6.566 11.372 1.671 25.6 14.78 25.6h50.949c10.423 0 23.549-10.414 12.372-29.771 80.371-42.14 136.723-127.075 136.723-226.234z" fill="#7cd543"/><path d="M256.003 95.728c-9.425 0-17.067 7.641-17.067 17.067v136.136l-48.518 48.518c-6.665 6.664-6.665 17.471 0 24.136s17.471 6.665 24.136 0l53.516-53.517a17.064 17.064 0 0 0 4.999-12.067V112.795c.001-9.426-7.639-17.067-17.066-17.067z" fill="#7cd543"/>
</symbol>
<symbol id="reload" viewBox="0 0 491.236 491.236"><path d="M55.89 262.818c-3-26-.5-51.1 6.3-74.3 22.6-77.1 93.5-133.8 177.6-134.8v-50.4c0-2.8 3.5-4.3 5.8-2.6l103.7 76.2c1.7 1.3 1.7 3.9 0 5.1l-103.6 76.2c-2.4 1.7-5.8.2-5.8-2.6v-50.3c-55.3.9-102.5 35-122.8 83.2-7.7 18.2-11.6 38.3-10.5 59.4 1.5 29 12.4 55.7 29.6 77.3 9.2 11.5 7 28.3-4.9 37-11.3 8.3-27.1 6-35.8-5-21.3-26.6-35.5-59-39.6-94.4zm299.4-96.8c17.3 21.5 28.2 48.3 29.6 77.3 1.1 21.2-2.9 41.3-10.5 59.4-20.3 48.2-67.5 82.4-122.8 83.2v-50.3c0-2.8-3.5-4.3-5.8-2.6l-103.7 76.2c-1.7 1.3-1.7 3.9 0 5.1l103.6 76.2c2.4 1.7 5.8.2 5.8-2.6v-50.4c84.1-.9 155.1-57.6 177.6-134.8 6.8-23.2 9.2-48.3 6.3-74.3-4-35.4-18.2-67.8-39.5-94.4-8.8-11-24.5-13.3-35.8-5-11.8 8.7-14 25.5-4.8 37z"/>
</symbol>
<symbol id="reports" viewBox="0 0 23 18"><title>icon</title><path d="M0 0v17.133h22.844v-1.427H1.427V0H0zm17.132 14.278h2.856V1.428h-2.856v12.85zm-8.566 0h2.856V2.856H8.566v11.422zm4.283 0h2.856V5.712h-2.856v8.566zm-8.566 0h2.856v-5.71H4.283v5.71z"/>
</symbol>
<symbol id="right-arrow" viewBox="0 0 129 129"><path d="M40.4 121.3c-.8.8-1.8 1.2-2.9 1.2s-2.1-.4-2.9-1.2c-1.6-1.6-1.6-4.2 0-5.8l51-51-51-51c-1.6-1.6-1.6-4.2 0-5.8 1.6-1.6 4.2-1.6 5.8 0l53.9 53.9c1.6 1.6 1.6 4.2 0 5.8l-53.9 53.9z"/>
</symbol>
<symbol id="scanner" viewBox="0 0 20 20"><title>icon</title><path d="M13.445 0v1.939h4.616v4.616H20V0h-6.555zM0 0v6.555h1.938V1.939h4.618V0H0zm18.061 13.445v4.616h-4.616V20H20v-6.555h-1.939zM0 13.445V20h6.556v-1.939H1.938v-4.616H0z"/>
</symbol>
<symbol id="structure" viewBox="0 0 22 20"><title>icon</title><path d="M19.988 2.855A2.86 2.86 0 0 0 17.133 0a2.86 2.86 0 0 0-2.856 2.855 2.861 2.861 0 0 0 2.856 2.855 2.86 2.86 0 0 0 2.855-2.855m1.428 6.793c0-.904.034-3.938-1.383-3.938-.234 0-1.395.948-2.9.948a4.474 4.474 0 0 1-1.484-.256c.033.245.056.49.056.736a5.037 5.037 0 0 1-.904 2.856 3.949 3.949 0 0 1 2.957 1.427h1.494c1.116 0 2.164-.536 2.164-1.773m-6.425-2.51a4.284 4.284 0 1 0-8.567.001 4.284 4.284 0 0 0 8.567-.001M7.138 2.855A2.86 2.86 0 0 0 4.283 0a2.861 2.861 0 0 0-2.856 2.855A2.862 2.862 0 0 0 4.283 5.71a2.86 2.86 0 0 0 2.855-2.855M18.56 17.098c0-2.52-.59-6.39-3.859-6.39-.379 0-1.762 1.549-3.993 1.549-2.23 0-3.614-1.549-3.993-1.549-3.268 0-3.86 3.87-3.86 6.39 0 1.808 1.194 2.89 2.98 2.89h9.748c1.784 0 2.977-1.082 2.977-2.89M6.614 9.994a5.051 5.051 0 0 1-.903-2.856c0-.246.022-.491.055-.736a4.46 4.46 0 0 1-1.483.256c-1.506 0-2.666-.948-2.899-.948C-.033 5.71 0 8.744 0 9.648c0 1.237 1.05 1.773 2.164 1.773H3.66a3.946 3.946 0 0 1 2.955-1.427"/>
</symbol>
<symbol id="up-arrow-1" viewBox="0 0 64 64"><path fill="#cccecf" d="M3.352 48.296l28.56-28.328 28.58 28.347c.397.394.917.59 1.436.59.52 0 1.04-.196 1.436-.59a2.003 2.003 0 0 0 0-2.849l-29.98-29.735c-.2-.2-.494-.375-.757-.475a2.052 2.052 0 0 0-2.166.456L.479 45.447a2.003 2.003 0 0 0 0 2.849 2.045 2.045 0 0 0 2.873 0z"/>
</symbol>
<symbol id="up-arrow" viewBox="0 0 64 64"><path fill="#1D1D1B" d="M3.352 48.296l28.56-28.328 28.58 28.347c.397.394.917.59 1.436.59.52 0 1.04-.196 1.436-.59a2.003 2.003 0 0 0 0-2.849l-29.98-29.735c-.2-.2-.494-.375-.757-.475a2.052 2.052 0 0 0-2.166.456L.479 45.447a2.003 2.003 0 0 0 0 2.849 2.045 2.045 0 0 0 2.873 0z"/>
</symbol></svg>