<?xml version="1.0" encoding="UTF-8"?>
<svg width="22px" height="20px" viewBox="0 0 22 20" version="1.1" xmlns="http://www.w3.org/2000/svg" xmlns:xlink="http://www.w3.org/1999/xlink">
    <!-- Generator: Sketch 49.1 (51147) - http://www.bohemiancoding.com/sketch -->
    <title>icon</title>
    <desc>Created with Sketch.</desc>
    <defs></defs>
    <g id="-" stroke="none" stroke-width="1">
        <g id="icon_admin_inactive" transform="translate(-13.000000, -14.000000)">
            <path d="M34.416,17.3239 C34.416,17.1569 32.978,16.9999 32.754,16.9779 C32.665,16.7779 32.553,16.5759 32.419,16.3979 C32.52,16.1749 32.988,15.0599 32.988,14.8589 C32.988,14.8369 32.978,14.8029 32.943,14.7809 C32.81,14.7029 31.616,13.9999 31.561,13.9999 L31.493,14.0219 C31.114,14.4019 30.779,14.8369 30.468,15.2719 C30.355,15.2609 30.244,15.2489 30.133,15.2489 C30.021,15.2489 29.91,15.2609 29.798,15.2719 C29.687,15.1039 28.851,13.9999 28.705,13.9999 C28.649,13.9999 27.456,14.7139 27.322,14.7809 C27.288,14.8029 27.277,14.8369 27.277,14.8589 C27.277,15.0489 27.746,16.1749 27.847,16.3979 C27.712,16.5759 27.601,16.7779 27.512,16.9779 C27.288,16.9999 25.85,17.1569 25.85,17.3239 L25.85,18.8859 C25.85,19.0529 27.288,19.2089 27.512,19.2309 C27.601,19.4429 27.712,19.6329 27.847,19.8109 C27.746,20.0339 27.277,21.1609 27.277,21.3509 C27.277,21.3729 27.288,21.4069 27.322,21.4279 C27.456,21.5069 28.649,22.2199 28.705,22.2199 C28.851,22.2199 29.687,21.1049 29.798,20.9379 C29.91,20.9489 30.021,20.9599 30.133,20.9599 C30.244,20.9599 30.355,20.9489 30.468,20.9379 C30.579,21.1049 31.415,22.2199 31.561,22.2199 C31.616,22.2199 32.81,21.5069 32.943,21.4279 C32.978,21.4069 32.988,21.3839 32.988,21.3509 C32.988,21.1499 32.52,20.0339 32.419,19.8109 C32.553,19.6329 32.665,19.4429 32.754,19.2309 C32.978,19.2089 34.416,19.0529 34.416,18.8859 L34.416,17.3239 Z M34.416,28.7449 C34.416,28.5779 32.978,28.4219 32.754,28.3999 C32.665,28.1989 32.553,27.9979 32.419,27.8199 C32.52,27.5969 32.988,26.4819 32.988,26.2809 C32.988,26.2579 32.978,26.2249 32.943,26.2019 C32.81,26.1239 31.616,25.4219 31.561,25.4219 L31.493,25.4449 C31.114,25.8239 30.779,26.2579 30.468,26.6939 C30.355,26.6819 30.244,26.6709 30.133,26.6709 C30.021,26.6709 29.91,26.6819 29.798,26.6939 C29.687,26.5269 28.851,25.4219 28.705,25.4219 C28.649,25.4219 27.456,26.1359 27.322,26.2019 C27.288,26.2249 27.277,26.2579 27.277,26.2809 C27.277,26.4699 27.746,27.5969 27.847,27.8199 C27.712,27.9979 27.601,28.1989 27.512,28.3999 C27.288,28.4219 25.85,28.5779 25.85,28.7449 L25.85,30.3079 C25.85,30.4749 27.288,30.6309 27.512,30.6539 C27.601,30.8659 27.712,31.0549 27.847,31.2339 C27.746,31.4559 27.277,32.5829 27.277,32.7729 C27.277,32.7949 27.288,32.8279 27.322,32.8509 C27.456,32.9289 28.649,33.6429 28.705,33.6429 C28.851,33.6429 29.687,32.5279 29.798,32.3599 C29.91,32.3709 30.021,32.3819 30.133,32.3819 C30.244,32.3819 30.355,32.3709 30.468,32.3599 C30.579,32.5279 31.415,33.6429 31.561,33.6429 C31.616,33.6429 32.81,32.9289 32.943,32.8509 C32.978,32.8279 32.988,32.8059 32.988,32.7729 C32.988,32.5719 32.52,31.4559 32.419,31.2339 C32.553,31.0549 32.665,30.8659 32.754,30.6539 C32.978,30.6309 34.416,30.4749 34.416,30.3079 L34.416,28.7449 Z M27.277,22.8009 C27.277,22.6449 27.166,22.4989 27.01,22.4659 L25.314,22.2089 C25.214,21.8969 25.08,21.5959 24.935,21.2949 C25.247,20.8599 25.582,20.4579 25.905,20.0229 C25.95,19.9559 25.983,19.8889 25.983,19.8109 C25.983,19.4989 24.667,18.2939 24.377,18.0269 C24.311,17.9709 24.232,17.9369 24.143,17.9369 C24.065,17.9369 23.987,17.9599 23.92,18.0149 L22.603,19.0079 C22.336,18.8739 22.057,18.7519 21.767,18.6619 L21.511,16.9559 C21.488,16.7999 21.332,16.6769 21.176,16.6769 L19.102,16.6769 C18.945,16.6769 18.812,16.7879 18.767,16.9449 C18.622,17.4909 18.566,18.1049 18.51,18.6619 C18.209,18.7629 17.93,18.8739 17.651,19.0189 L16.369,18.0149 C16.302,17.9709 16.224,17.9369 16.134,17.9369 C15.811,17.9369 14.562,19.2869 14.338,19.5879 C14.283,19.6549 14.26,19.7329 14.26,19.8109 C14.26,19.8889 14.294,19.9679 14.338,20.0339 C14.695,20.4579 15.03,20.8709 15.342,21.3169 C15.197,21.5959 15.075,21.8749 14.985,22.1649 L13.256,22.4319 C13.111,22.4549 13,22.6219 13,22.7669 L13,24.8309 C13,24.9869 13.111,25.1319 13.268,25.1539 L14.963,25.4219 C15.063,25.7349 15.197,26.0349 15.354,26.3359 C15.03,26.7719 14.695,27.1839 14.372,27.6079 C14.327,27.6749 14.294,27.7419 14.294,27.8199 C14.294,28.1439 15.61,29.3369 15.9,29.6049 C15.967,29.6599 16.045,29.6939 16.134,29.6939 C16.212,29.6939 16.302,29.6719 16.357,29.6159 L17.674,28.6229 C17.941,28.7569 18.22,28.8799 18.51,28.9689 L18.767,30.6759 C18.789,30.8309 18.945,30.9539 19.102,30.9539 L21.176,30.9539 C21.332,30.9539 21.466,30.8429 21.511,30.6869 C21.656,30.1399 21.711,29.5269 21.767,28.9569 C22.068,28.8679 22.347,28.7569 22.626,28.6119 L23.909,29.6159 C23.976,29.6599 24.054,29.6939 24.143,29.6939 C24.466,29.6939 25.716,28.3329 25.938,28.0319 C25.994,27.9759 26.017,27.8979 26.017,27.8199 C26.017,27.7309 25.983,27.6639 25.938,27.5969 C25.582,27.1729 25.247,26.7599 24.935,26.3149 C25.08,26.0349 25.202,25.7559 25.292,25.4659 L27.02,25.1989 C27.166,25.1769 27.277,25.0089 27.277,24.8639 L27.277,22.8009 Z M31.561,18.1049 C31.561,18.8859 30.925,19.5319 30.133,19.5319 C29.352,19.5319 28.705,18.8969 28.705,18.1049 C28.705,17.3239 29.352,16.6769 30.133,16.6769 C30.914,16.6769 31.561,17.3239 31.561,18.1049 L31.561,18.1049 Z M31.561,29.5269 C31.561,30.3079 30.925,30.9539 30.133,30.9539 C29.352,30.9539 28.705,30.3189 28.705,29.5269 C28.705,28.7449 29.352,28.0989 30.133,28.0989 C30.914,28.0989 31.561,28.7449 31.561,29.5269 L31.561,29.5269 Z M22.994,23.8159 C22.994,25.3889 21.711,26.6709 20.139,26.6709 C18.566,26.6709 17.283,25.3889 17.283,23.8159 C17.283,22.2429 18.566,20.9599 20.139,20.9599 C21.711,20.9599 22.994,22.2429 22.994,23.8159 L22.994,23.8159 Z" id="icon"></path>
        </g>
    </g>
</svg>
