<?xml version="1.0" encoding="iso-8859-1"?>
<!-- Generator: Adobe Illustrator 19.0.0, SVG Export Plug-In . SVG Version: 6.00 Build 0)  -->
<svg version="1.1" id="Capa_1" xmlns="http://www.w3.org/2000/svg" xmlns:xlink="http://www.w3.org/1999/xlink" x="0px" y="0px"
	 viewBox="0 0 512 512" style="enable-background:new 0 0 512 512;" xml:space="preserve">
<g>
	<g>
		<path d="M444.862,109.779L338.221,3.138C336.29,1.201,333.621,0,330.667,0h-224C83.146,0,64,19.135,64,42.667v426.667
			C64,492.865,83.146,512,106.667,512h298.667C428.854,512,448,492.865,448,469.333v-352
			C448,114.379,446.799,111.71,444.862,109.779z M128,21.333h106.667V160c0,3.698-1.917,7.125-5.063,9.073
			c-1.708,1.063-3.656,1.594-5.604,1.594c-1.635,0-3.26-0.375-4.771-1.125l-37.896-18.948l-37.896,18.948
			c-3.313,1.646-7.25,1.469-10.375-0.469C129.917,167.125,128,163.698,128,160V21.333z M309.333,426.667H138.667
			c-5.896,0-10.667-4.771-10.667-10.667c0-5.896,4.771-10.667,10.667-10.667h170.667c5.896,0,10.667,4.771,10.667,10.667
			C320,421.896,315.229,426.667,309.333,426.667z M373.333,341.333H138.667c-5.896,0-10.667-4.771-10.667-10.667
			c0-5.896,4.771-10.667,10.667-10.667h234.667c5.896,0,10.667,4.771,10.667,10.667C384,336.563,379.229,341.333,373.333,341.333z
			 M373.333,256H138.667c-5.896,0-10.667-4.771-10.667-10.667c0-5.896,4.771-10.667,10.667-10.667h234.667
			c5.896,0,10.667,4.771,10.667,10.667C384,251.229,379.229,256,373.333,256z M362.667,106.667
			c-11.771,0-21.333-9.573-21.333-21.333V36.417l70.25,70.25H362.667z"/>
	</g>
</g>
<g>
</g>
<g>
</g>
<g>
</g>
<g>
</g>
<g>
</g>
<g>
</g>
<g>
</g>
<g>
</g>
<g>
</g>
<g>
</g>
<g>
</g>
<g>
</g>
<g>
</g>
<g>
</g>
<g>
</g>
</svg>
