<?xml version="1.0" encoding="UTF-8"?>
<svg width="22px" height="19px" viewBox="0 0 22 19" version="1.1" xmlns="http://www.w3.org/2000/svg" xmlns:xlink="http://www.w3.org/1999/xlink">
    <!-- Generator: Sketch 49.1 (51147) - http://www.bohemiancoding.com/sketch -->
    <title>icon</title>
    <desc>Created with Sketch.</desc>
    <defs></defs>
    <g id="-" stroke="none" stroke-width="1">
        <g id="icon_inventory_inactive" transform="translate(-14.000000, -14.000000)">
            <path d="M32.288,19.8085 L31.527,20.5545 L30.771,19.8045 L30.043,19.0805 L30.804,18.3345 L31.532,19.0585 L33.279,17.3435 L34.035,18.0935 L32.288,19.8085 Z M32.039,15.0435 C29.849,15.0435 28.078,16.7945 28.078,18.9515 C28.078,21.1125 29.852,22.8595 32.039,22.8595 C34.225,22.8595 36,21.1085 36,18.9515 C36,16.7945 34.225,15.0435 32.039,15.0435 L32.039,15.0435 Z M32.02,24.4405 L32.02,28.6695 L24.982,30.7595 L24.982,16.2805 L26.906,16.8525 C27.173,16.2185 27.562,15.6465 28.037,15.1555 L24.285,14.0425 C24.267,14.0385 24.248,14.0345 24.23,14.0295 L24.176,14.0165 C24.059,13.9945 23.94,13.9945 23.823,14.0165 C23.805,14.0205 23.787,14.0255 23.768,14.0295 C23.75,14.0345 23.732,14.0345 23.714,14.0425 L21.695,14.6415 L19.694,15.2355 L19.694,20.2105 L17.468,20.6255 L17.468,15.8915 L15.521,16.4685 L14.702,16.7095 C14.285,16.8345 14,17.2095 14,17.6385 L14,29.3835 C14,29.8125 14.285,30.1925 14.702,30.3135 L23.71,32.9885 C23.8,33.0145 23.9,33.0285 23.995,33.0285 C24.09,33.0285 24.185,33.0145 24.28,32.9885 L33.288,30.3135 C33.705,30.1875 33.99,29.8125 33.99,29.3835 L33.99,24.0825 C33.384,24.3105 32.727,24.4405 32.039,24.4405 L32.02,24.4405 Z" id="icon"></path>
        </g>
    </g>
</svg>
