<?xml version="1.0" encoding="iso-8859-1"?>
<!-- Generator: Adobe Illustrator 19.0.0, SVG Export Plug-In . SVG Version: 6.00 Build 0)  -->
<svg xmlns="http://www.w3.org/2000/svg" xmlns:xlink="http://www.w3.org/1999/xlink" version="1.1" id="Layer_1" x="0px" y="0px" viewBox="0 0 512 512" style="enable-background:new 0 0 512 512;" xml:space="preserve" width="512px" height="512px">
<g>
	<g>
		<path d="M256.003,477.29c-122.018,0-221.286-99.268-221.286-221.285c0-85.901,48.916-160.105,119.671-196.648l5.985,10.366    c6.565,11.371,23.005,11.354,29.559,0L215.409,25.6c6.566-11.372-1.671-25.6-14.78-25.6H149.68    c-10.423,0-23.549,10.414-12.372,29.771C56.937,71.911,0.585,156.846,0.585,256.005c0,141.17,114.237,255.419,255.42,255.419    c9.425,0,17.067-7.641,17.067-17.067C273.071,484.931,265.43,477.29,256.003,477.29z" fill="#7cd543"/>
	</g>
</g>
<g>
	<g>
		<path d="M511.415,255.995c0-141.17-114.236-255.419-255.419-255.419c-9.425,0-17.067,7.641-17.067,17.067    s7.641,17.067,17.067,17.067c122.018,0,221.286,99.268,221.286,221.285c0,85.901-48.917,160.105-119.672,196.648l-5.985-10.366    c-6.565-11.371-23.005-11.354-29.56,0L296.591,486.4c-6.566,11.372,1.671,25.6,14.78,25.6h50.949    c10.423,0,23.549-10.414,12.372-29.771C455.063,440.089,511.415,355.154,511.415,255.995z" fill="#7cd543"/>
	</g>
</g>
<g>
	<g>
		<path d="M256.003,95.728c-9.425,0-17.067,7.641-17.067,17.067v136.136l-48.518,48.518c-6.665,6.664-6.665,17.471,0,24.136    s17.471,6.665,24.136,0l53.516-53.517c3.201-3.201,4.999-7.541,4.999-12.067V112.795C273.07,103.369,265.43,95.728,256.003,95.728    z" fill="#7cd543"/>
	</g>
</g>
<g>
</g>
<g>
</g>
<g>
</g>
<g>
</g>
<g>
</g>
<g>
</g>
<g>
</g>
<g>
</g>
<g>
</g>
<g>
</g>
<g>
</g>
<g>
</g>
<g>
</g>
<g>
</g>
<g>
</g>
</svg>
