<?xml version="1.0" encoding="UTF-8"?>
<svg width="22px" height="20px" viewBox="0 0 22 20" version="1.1" xmlns="http://www.w3.org/2000/svg" xmlns:xlink="http://www.w3.org/1999/xlink">
    <!-- Generator: Sketch 49.1 (51147) - http://www.bohemiancoding.com/sketch -->
    <title>icon</title>
    <desc>Created with Sketch.</desc>
    <defs></defs>
    <g id="-" stroke="none" stroke-width="1">
        <g id="icon_structure_inactive" transform="translate(-13.000000, -14.000000)">
            <path d="M32.9880654,16.855 C32.9880654,15.282 31.7060654,14 30.1330654,14 C28.5600654,14 27.2770654,15.282 27.2770654,16.855 C27.2770654,18.427 28.5600654,19.71 30.1330654,19.71 C31.7060654,19.71 32.9880654,18.427 32.9880654,16.855 M34.4160654,23.648 C34.4160654,22.744 34.4500654,19.71 33.0330654,19.71 C32.7990654,19.71 31.6380654,20.658 30.1330654,20.658 C29.6200654,20.658 29.1290654,20.569 28.6490654,20.402 C28.6820654,20.647 28.7050654,20.892 28.7050654,21.138 C28.7050654,22.153 28.3820654,23.157 27.8010654,23.994 C28.9620654,24.027 30.0100654,24.529 30.7580654,25.421 L32.2520654,25.421 C33.3680654,25.421 34.4160654,24.885 34.4160654,23.648 M27.9910654,21.138 C27.9910654,18.773 26.0730654,16.855 23.7080654,16.855 C21.3430654,16.855 19.4250654,18.773 19.4250654,21.138 C19.4250654,23.502 21.3430654,25.421 23.7080654,25.421 C26.0730654,25.421 27.9910654,23.502 27.9910654,21.138 M20.1380654,16.855 C20.1380654,15.282 18.8560654,14 17.2830654,14 C15.7110654,14 14.4270654,15.282 14.4270654,16.855 C14.4270654,18.427 15.7110654,19.71 17.2830654,19.71 C18.8560654,19.71 20.1380654,18.427 20.1380654,16.855 M31.5600654,31.098 C31.5600654,28.578 30.9690654,24.708 27.7010654,24.708 C27.3220654,24.708 25.9390654,26.257 23.7080654,26.257 C21.4770654,26.257 20.0940654,24.708 19.7150654,24.708 C16.4470654,24.708 15.8550654,28.578 15.8550654,31.098 C15.8550654,32.906 17.0490654,33.988 18.8340654,33.988 L28.5830654,33.988 C30.3670654,33.988 31.5600654,32.906 31.5600654,31.098 M19.6140654,23.994 C19.0350654,23.157 18.7110654,22.153 18.7110654,21.138 C18.7110654,20.892 18.7330654,20.647 18.7660654,20.402 C18.2870654,20.569 17.7970654,20.658 17.2830654,20.658 C15.7770654,20.658 14.6170654,19.71 14.3840654,19.71 C12.9670654,19.71 13.0000654,22.744 13.0000654,23.648 C13.0000654,24.885 14.0490654,25.421 15.1640654,25.421 L16.6590654,25.421 C17.4060654,24.529 18.4550654,24.027 19.6140654,23.994" id="icon"></path>
        </g>
    </g>
</svg>
